<?xml version="1.0" encoding="UTF-8" standalone="no"?>
<!-- Created with Inkscape (http://www.inkscape.org/) -->

<svg
   xmlns:dc="http://purl.org/dc/elements/1.1/"
   xmlns:cc="http://creativecommons.org/ns#"
   xmlns:rdf="http://www.w3.org/1999/02/22-rdf-syntax-ns#"
   xmlns:svg="http://www.w3.org/2000/svg"
   xmlns="http://www.w3.org/2000/svg"
   xmlns:sodipodi="http://sodipodi.sourceforge.net/DTD/sodipodi-0.dtd"
   xmlns:inkscape="http://www.inkscape.org/namespaces/inkscape"
   width="1481.83"
   height="520"
   id="svg6055"
   version="1.1"
   viewBox="0 0 1481.53 520"
   inkscape:version="0.48.4 r9939"
   sodipodi:docname="Neues Dokument 4">
  <defs
     id="defs6057" />
  <sodipodi:namedview
     id="base"
     pagecolor="#ffffff"
     bordercolor="#666666"
     borderopacity="1.0"
     inkscape:pageopacity="0.0"
     inkscape:pageshadow="2"
     inkscape:zoom="1.0603172"
     inkscape:cx="740.91498"
     inkscape:cy="260.00001"
     inkscape:document-units="px"
     inkscape:current-layer="layer1"
     showgrid="false"
     fit-margin-top="0"
     fit-margin-left="0"
     fit-margin-right="0"
     fit-margin-bottom="0"
     inkscape:window-width="1680"
     inkscape:window-height="990"
     inkscape:window-x="-4"
     inkscape:window-y="-4"
     inkscape:window-maximized="1" />
  <metadata
     id="metadata6060">
    <rdf:RDF>
      <cc:Work
         rdf:about="">
        <dc:format>image/svg+xml</dc:format>
        <dc:type
           rdf:resource="http://purl.org/dc/dcmitype/StillImage" />
        <dc:title></dc:title>
      </cc:Work>
    </rdf:RDF>
  </metadata>
  <g
     inkscape:label="Ebene 1"
     inkscape:groupmode="layer"
     id="layer1"
     transform="translate(-321.96112,77.036561)">
    <g
       id="g2936"
       transform="matrix(10.212001,0,0,-10.212001,406.65332,250.14819)">
      <path
         inkscape:connector-curvature="0"
         d="m 0,0 c 0,-0.545 0.408,-1.577 1.585,-1.577 1.175,0 1.577,1.062 1.577,1.577 l 0,8.108 7.347,0 0,-8.438 c 0,-4.891 -4.364,-6.695 -8.896,-6.695 -4.531,0 -8.927,1.804 -8.927,6.695 l 0,24.698 c 0,4.889 4.366,6.692 8.899,6.692 4.532,0 8.924,-1.803 8.924,-6.692 l 0,-6.948 -7.347,0 0,6.654 c 0,0.364 -0.402,1.548 -1.577,1.548 0,0 -1.585,-0.136 -1.585,-1.548 L 0,0 m 33.459,-6.303 0,36.639 7.346,0 0,-31.388 6.509,0 0,-5.251 m 12.303,36.64 7.343,0 0,-30.667 c 0,-4.89 -4.375,-6.694 -8.907,-6.694 -4.53,0 -8.903,1.804 -8.903,6.694 l 0,30.667 7.346,0 0,-30.337 c 0,-0.455 0.314,-1.562 1.557,-1.562 1.246,0 1.573,1.072 1.573,1.562 0,0.49 -0.009,30.337 -0.009,30.337 m 43.131,-36.64 0,36.639 13.75,0 0,-5.249 -6.407,0 0,-8.386 6.148,0 0,-5.249 -6.148,0 0,-12.504 6.407,0 0,-5.251"
         style="fill:#ed1c24;fill-opacity:1;fill-rule:nonzero;stroke:none"
         id="path2938" />
    </g>
    <g
       id="g2940"
       transform="matrix(10.212001,0,0,-10.212001,1743.2196,314.51484)">
      <path
         inkscape:connector-curvature="0"
         d="m 0,0 -7.343,0 0,31.39 -4.95,0 0,5.249 17.245,0 0,-5.249 -4.952,0 m -109.226,-1.401 -1.868,-14.739 3.74,0 -1.872,14.739 z M -113.029,0 l -6.564,0 5.523,36.641 9.742,0 5.493,-36.641 -6.582,0 -1.275,10.025 -5.067,0"
         style="fill:#ed1c24;fill-opacity:1;fill-rule:nonzero;stroke:none"
         id="path2942" />
    </g>
    <g
       id="g2944"
       transform="matrix(10.212001,0,0,-10.212001,1271.2013,191.5313)">
      <path
         inkscape:connector-curvature="0"
         d="m 0,0 -3.177,24.597 -11.305,0 0,-36.641 6.616,0 0,26.55 4.376,-26.55 6.982,0 4.373,26.55 0,-26.55 6.616,0 0,36.641 -11.304,0 m -91.329,-44.051 1.652,0 c 0.769,0 1.326,0.251 1.326,0.938 0,0.706 -0.569,0.99 -1.326,0.99 l -1.652,0 0,-1.928 z m -2.463,3.499 4.488,0 c 1.76,0 3.413,-0.642 3.413,-2.425 0,-1.865 -1.335,-2.594 -3.413,-2.594 l -2.025,0 0,-2.509 -2.463,0"
         style="fill:#ed1c24;fill-opacity:1;fill-rule:nonzero;stroke:none"
         id="path2946" />
    </g>
    <g
       id="g2948"
       transform="matrix(10.212001,0,0,-10.212001,468.33299,354.47399)">
      <path
         inkscape:connector-curvature="0"
         d="m 0,0 2.461,0 0,-2.743 3.244,0 0,2.743 2.462,0 0,-7.528 -2.462,0 0,3.101 -3.244,0 0,-3.101 -2.461,0 m 17.156,1.53 c 1.587,0 2.196,1.12 2.196,2.235 0,1.118 -0.609,2.238 -2.196,2.238 -1.59,0 -2.2,-1.12 -2.2,-2.238 0,-1.115 0.61,-2.235 2.2,-2.235 m 0,6.159 c 2.974,0 4.658,-1.741 4.658,-3.924 0,-2.182 -1.684,-3.92 -4.658,-3.92 -2.98,0 -4.661,1.738 -4.661,3.92 0,2.183 1.681,3.924 4.661,3.924 m 15.731,-1.848 -2.819,0 0,-5.842 -2.459,0 0,5.842 -2.822,0 0,1.687 8.1,0 m 7.706,-5.998 c 1.587,0 2.196,1.12 2.196,2.235 0,1.118 -0.609,2.238 -2.196,2.238 -1.589,0 -2.199,-1.12 -2.199,-2.238 0,-1.115 0.61,-2.235 2.199,-2.235 m 0,6.159 c 2.975,0 4.659,-1.741 4.659,-3.924 0,-2.182 -1.684,-3.92 -4.659,-3.92 -2.979,0 -4.66,1.738 -4.66,3.92 0,2.183 1.681,3.924 4.66,3.924 m 17.505,-7.688 -1.587,0 -0.146,0.824 c -0.648,-0.73 -1.759,-0.983 -2.633,-0.983 -2.86,0 -4.713,1.74 -4.713,3.924 0,2.182 1.853,3.924 4.713,3.924 1.957,0 4.048,-0.836 4.274,-2.723 l -2.463,0 c -0.079,0.645 -0.871,1.034 -1.867,1.034 -1.586,0 -2.194,-1.117 -2.194,-2.235 0,-1.118 0.608,-2.235 2.194,-2.235 1.263,0 1.931,0.469 2.136,0.999 l -1.685,0 0,1.376 3.971,0 m 7.247,0.354 2.065,0 c 0.741,0 1.14,0.318 1.14,0.888 0,0.557 -0.558,0.809 -1.247,0.809 l -1.958,0 0,-1.697 z M 62.886,0 67.703,0 c 1.665,0 3.306,-0.599 3.306,-2.115 0,-0.815 -0.487,-1.583 -1.482,-1.889 l 0,-0.021 c 1.006,-0.19 1.297,-1.089 1.376,-1.807 0.027,-0.315 0.068,-1.419 0.399,-1.696 l -2.435,0 c -0.216,0.257 -0.252,0.993 -0.278,1.202 -0.067,0.76 -0.226,1.54 -1.378,1.54 l -1.866,0 0,-2.742 -2.459,0 m 15.232,2.806 2.144,0 -1.045,2.638 -0.026,0 -1.073,-2.638 z M 77.958,0 l 2.501,0 3.533,-7.527 -2.567,0 -0.582,1.347 -3.295,0 -0.594,-1.347 -2.531,0 m 15.186,4.029 1.655,0 c 0.766,0 1.319,0.251 1.319,0.938 0,0.706 -0.566,0.99 -1.319,0.99 l -1.655,0 0,-1.928 z m -2.461,3.499 4.486,0 c 1.76,0 3.416,-0.642 3.416,-2.425 0,-1.865 -1.338,-2.594 -3.416,-2.594 l -2.025,0 0,-2.509 -2.461,0 m 11.7,7.527 2.462,0 0,-2.743 3.242,0 0,2.743 2.464,0 0,-7.528 -2.464,0 0,3.101 -3.242,0 0,-3.101 -2.462,0 m 12.797,0.002 2.458,0 0,7.5269 -2.458,0 0,-7.5269 z m 12.572,4.837 c -0.131,0.761 -0.873,1.163 -1.906,1.163 -1.587,0 -2.198,-1.119 -2.198,-2.236 0,-1.119 0.611,-2.235 2.198,-2.235 1.152,0 1.813,0.527 1.906,1.392 l 2.464,0 c -0.132,-1.939 -1.921,-3.081 -4.315,-3.081 -2.86,0 -4.716,1.738 -4.716,3.924 0,2.182 1.856,3.923 4.716,3.923 2.036,0 4.248,-1.034 4.315,-2.85"
         style="fill:#ed1c24;fill-opacity:1;fill-rule:nonzero;stroke:none"
         id="path2950" />
    </g>
  </g>
</svg>
