<svg xmlns="http://www.w3.org/2000/svg" height="39.506mm" width="169.33mm" viewBox="0 0 599.99998 139.98082"><g fill-rule="evenodd"><path d="M214 47.5h-14.315c-6.364 0-8.573-3.266-8.573-6.358 0-3.092 2.21-6.26 8.573-6.26H214zm-107.89-2.294V34.883h14.67c3.355 0 7.245.973 7.245 5.037s-3.89 5.286-7.246 5.286zm0 19.972v-10.87h15.197c5.214 0 8.22 1.42 8.22 5.485s-3.006 5.385-8.22 5.385zm155.61-9.998h19.53c5.92 0 7.688 1.944 7.688 4.438 0 3.79-4.24 5.56-11.4 5.56-8.218 0-19.174-2.12-27.128-4.24l-2.296 13.416c9.013 2.643 19.883 5.386 34.903 5.386 19.354 0 39.588-4.588 39.588-17.23 0-8.552-9.542-12.268-17.76-12.89v-.35c6.626-1.222 13.254-5.835 13.254-12.542 0-11.47-16.178-15.883-33.05-15.883-12.288 0-25.54 2.643-34.55 5.012l1.85 12.99c8.04-2.02 18.115-4.064 25.715-4.064 6.627 0 10.073 1.247 10.073 4.863 0 2.393-1.327 4.338-6.628 4.338h-19.79zM460 65.252c-6.98 0-16.606-3.79-16.606-14.737 0-11.67 9.55-15.01 16.606-15.01 7.082 0 16.63 3.342 16.63 15.01 0 10.946-9.648 14.736-16.63 14.736zM70.32 41.862V25.857c-7.777-3.266-16.79-5.286-27.392-5.286C22.25 20.57-.02 28.43-.02 50.59c0 21.37 22.18 29.498 43.3 29.498 10.072 0 19.794-1.745 27.04-4.837V59.25c-6.01 2.568-12.018 3.89-18.382 3.89-9.1 0-19.085-2.992-19.085-12.542 0-9.275 8.66-12.79 17.938-12.79 5.92 0 13.17 1.57 19.53 4.064zM326.58 77.27h30.575V57.125h20.863V77.27h30.744V23.49h-30.744v18.626h-20.863V23.488H326.58zm211.54 0l31.816-26.928v26.93h30.046V23.487h-26.605l-31.89 26.93v-26.93H511.44V77.27zm-346.21 0l10.96-18.1h11.133v18.1h29.427V23.49c-12.55-1.32-30.4-1.87-35.965-1.87-23.77 0-46.128 1.596-46.128 19.698 0 7.88 6.805 12.467 14.582 14.412l-16.09 21.54zm-115.32 0c14.315 1.248 26.42 1.847 39.588 1.847 19.352 0 44.358-1.048 44.358-16.058 0-8.758-9.896-13.44-18.38-13.44v-.6c8.13-.9 14.67-6.46 14.67-12.92 0-13.415-21.296-14.487-41.356-14.487-13.342 0-24.034.548-38.88 1.87zM460 20.57c-21.02 0-48.148 7.605-48.148 30.02 0 21.993 27.403 29.498 48.148 29.498 20.77 0 48.173-7.505 48.173-29.497 0-22.41-27.13-30.02-48.173-30.02z" fill="#57595b"/><path d="M568.95 18.8L546.958 0v37.626z" fill="#ffa600"/><path d="M122.5 139.98H3.12v-37.626H122.5z" fill="#56aae8"/><path d="M241.8 139.98H122.5v-37.626h119.3z" fill="#ffa525"/><path d="M361.2 139.98H241.83v-37.626H361.2z" fill="#6fc600"/><path d="M480.6 139.98H361.21v-37.626H480.6z" fill="#ffd862"/><path d="M599.97 139.98H480.59v-37.626h119.38z" fill="#b28cda"/></g></svg>