<?xml version="1.0" encoding="UTF-8" standalone="no"?>
<!DOCTYPE svg PUBLIC "-//W3C//DTD SVG 1.1//EN" "http://www.w3.org/Graphics/SVG/1.1/DTD/svg11.dtd">
<svg viewBox="0 0 787 258" height="258.0pt" width="787.0pt" xmlns="http://www.w3.org/2000/svg" version="1.1">
<path class="f1" d="M 133.00 11.21 C 141.36 10.47 149.49 17.52 149.63 25.95 C 149.62 42.95 149.60 59.99 149.62 77.00 C 149.43 81.84 150.51 87.78 148.05 92.08 C 144.84 98.21 137.80 101.89 130.94 100.36 C 123.75 98.95 118.33 92.37 118.36 85.03 C 118.34 65.71 118.35 46.28 118.36 26.95 C 118.21 18.84 124.91 11.65 133.00 11.21 Z" fill="#009ffe" />
<path class="f1" d="M 34.14 90.03 C 48.82 94.89 63.52 99.65 78.22 104.45 C 81.75 105.64 85.42 106.59 88.85 108.05 C 94.90 110.64 98.99 117.43 98.23 123.99 C 97.55 130.62 92.53 136.45 86.01 137.94 C 81.68 139.22 77.90 137.54 73.81 136.30 C 56.97 130.67 40.02 125.33 23.19 119.71 C 16.85 117.73 12.11 111.73 12.18 105.01 C 11.83 98.51 15.96 92.20 22.05 89.92 C 26.06 88.22 30.11 88.71 34.14 90.03 Z" fill="#009ffe" />
<path class="f1" d="M 241.01 88.84 C 250.59 89.22 257.87 98.64 255.63 108.01 C 254.38 113.56 250.23 118.10 244.78 119.77 C 228.70 125.08 212.56 130.26 196.49 135.57 C 193.09 136.65 189.55 138.08 186.00 138.45 C 180.40 138.44 175.18 135.55 172.23 130.80 C 168.55 124.96 169.13 117.76 173.46 112.45 C 177.42 107.34 184.70 106.37 190.49 104.27 C 204.24 99.74 218.04 95.35 231.77 90.73 C 234.71 89.76 237.88 88.75 241.01 88.84 Z" fill="#009ffe" />
<path class="f1" d="M 416.37 95.48 C 421.21 93.58 426.69 94.11 431.09 96.87 C 436.24 100.05 439.33 105.97 438.88 112.03 C 438.79 120.41 431.40 127.81 423.00 127.85 C 414.80 128.44 407.26 122.02 405.92 114.03 C 404.45 106.26 409.07 98.34 416.37 95.48 Z" fill="#fdda01" />
<path class="f1" d="M 460.21 95.24 C 465.26 93.39 471.08 94.48 475.34 97.68 C 480.86 101.69 483.73 109.59 481.34 116.11 C 479.25 123.11 472.37 128.24 465.00 127.86 C 457.41 127.90 450.86 122.03 449.14 114.81 C 447.13 106.66 452.22 97.77 460.21 95.24 Z" fill="#fdda01" />
<path class="f1" d="M 567.99 136.29 C 577.62 136.73 586.66 141.75 592.99 148.90 C 589.79 153.25 586.03 157.09 582.05 160.71 C 577.77 157.97 574.23 155.06 569.05 154.15 C 562.28 152.72 555.03 155.35 550.91 160.95 C 545.49 168.07 546.57 178.79 553.26 184.74 C 559.70 190.81 569.72 190.68 576.82 185.80 C 578.46 184.98 580.81 182.57 582.71 183.28 C 586.67 186.19 589.81 190.44 593.01 194.14 C 590.95 196.39 588.82 198.54 586.31 200.28 C 574.78 208.81 557.75 209.13 545.86 201.16 C 538.21 196.09 532.76 188.21 530.79 179.23 C 527.61 166.44 532.81 152.24 543.04 144.07 C 549.97 138.33 559.04 135.61 567.99 136.29 Z" fill="#009ffe" />
<path class="f1" d="M 291.39 138.52 C 295.55 138.01 299.85 138.19 304.03 138.33 C 305.72 138.39 307.52 138.88 307.55 140.91 C 307.98 146.91 307.60 152.99 307.69 159.01 C 311.76 153.65 315.95 148.38 320.06 143.05 C 322.00 140.82 323.63 138.17 326.96 138.30 C 332.65 138.43 338.83 137.63 344.38 138.89 C 345.16 141.36 343.57 142.48 342.30 144.30 C 335.80 152.17 329.31 160.05 322.84 167.95 C 331.17 178.35 339.53 188.73 347.95 199.06 C 349.17 200.91 351.15 202.68 348.61 204.47 C 343.12 205.03 337.47 204.68 331.96 204.70 C 328.77 204.91 327.46 202.55 325.55 200.48 C 319.65 193.01 313.58 185.68 307.69 178.19 C 307.67 185.48 307.78 192.77 307.71 200.05 C 307.53 201.94 307.90 203.62 305.77 204.45 C 301.24 204.98 295.89 204.91 291.34 204.49 C 289.00 203.94 289.40 201.93 289.22 200.04 C 289.23 181.37 289.28 162.65 289.20 143.99 C 289.47 141.88 288.61 139.07 291.39 138.52 Z" fill="#009ffe" />
<path class="f1" d="M 358.12 138.41 C 362.60 138.12 367.39 138.06 371.85 138.49 C 374.09 138.70 374.11 141.26 374.23 142.97 C 374.28 153.67 374.24 164.39 374.21 175.10 C 382.17 164.11 390.29 153.23 398.22 142.22 C 399.18 140.96 400.20 139.54 401.49 138.60 C 405.56 137.90 409.90 138.33 414.02 138.24 C 415.83 138.44 418.18 137.93 419.26 139.79 C 419.86 142.42 419.61 145.31 419.65 148.00 C 419.60 165.01 419.61 182.01 419.66 199.02 C 419.62 200.40 419.63 201.89 419.27 203.23 C 418.27 204.91 416.73 204.53 415.05 204.73 C 411.11 204.75 407.08 204.97 403.17 204.50 C 401.03 204.39 401.04 201.64 400.85 200.05 C 400.76 189.39 400.88 178.71 400.83 168.04 C 392.76 179.23 384.54 190.30 376.44 201.47 C 375.19 202.88 374.18 204.78 372.03 204.66 C 367.43 204.81 362.72 204.88 358.12 204.60 C 355.71 204.24 355.43 202.09 355.42 200.05 C 355.43 180.98 355.45 162.03 355.41 142.95 C 355.41 140.87 355.70 138.81 358.12 138.41 Z" fill="#009ffe" />
<path class="f1" d="M 435.49 138.59 C 439.23 137.95 443.20 138.33 447.00 138.22 C 448.89 138.35 451.37 138.00 453.07 138.95 C 454.19 140.21 454.11 142.39 454.20 143.99 C 454.15 159.97 454.16 176.01 454.18 192.00 C 454.15 195.35 454.40 198.79 453.97 202.11 C 453.83 203.10 452.97 204.50 451.86 204.54 C 447.60 204.94 443.26 204.74 438.98 204.74 C 437.00 204.80 435.34 204.18 433.57 203.40 C 433.69 183.26 433.59 163.11 433.61 142.98 C 433.70 141.02 433.51 139.61 435.49 138.59 Z" fill="#009ffe" />
<path class="f1" d="M 473.98 138.24 C 482.32 138.26 490.66 138.32 499.00 138.24 C 503.69 138.19 508.11 138.45 512.34 140.69 C 518.69 143.95 522.67 150.86 521.74 158.02 C 521.36 162.18 519.14 165.24 516.61 168.38 C 520.12 170.63 523.33 172.92 525.25 176.75 C 529.17 183.82 527.33 193.08 521.56 198.56 C 517.10 202.89 511.15 204.70 505.03 204.73 C 495.02 204.74 485.01 204.67 475.00 204.76 C 472.67 204.81 470.66 204.41 468.49 203.64 C 468.67 182.27 468.49 160.91 468.58 139.54 C 470.44 138.57 471.85 138.22 473.98 138.24 Z" fill="#009ffe" />
<path class="f1" d="M 602.00 138.23 C 616.67 138.34 631.37 138.24 646.05 138.27 C 647.88 138.43 649.95 138.14 650.46 140.42 C 650.91 144.58 650.72 148.85 650.64 153.03 C 650.60 154.16 650.40 156.63 648.84 156.59 C 643.43 157.07 637.92 156.67 632.49 156.73 C 632.35 172.13 632.53 187.53 632.40 202.93 C 631.79 203.52 631.18 204.11 630.57 204.70 C 626.36 204.69 622.15 204.83 617.95 204.70 C 616.57 204.55 615.40 204.81 614.54 203.50 C 614.06 201.75 614.14 199.81 614.10 198.00 C 614.19 184.25 614.12 170.50 614.15 156.76 C 608.38 156.59 602.42 157.21 596.71 156.43 C 595.26 154.52 595.66 152.28 595.52 150.00 C 595.56 146.71 595.36 143.32 595.86 140.07 C 597.30 137.68 599.62 138.45 602.00 138.23 Z" fill="#009ffe" />
<path class="f1" d="M 670.15 138.47 C 675.40 137.99 680.75 138.35 686.02 138.25 C 687.68 138.41 690.26 138.00 691.20 139.73 C 693.01 142.82 693.96 146.46 695.26 149.79 C 700.69 164.37 706.13 178.95 711.58 193.52 C 712.70 196.60 714.22 199.71 714.81 202.93 C 714.45 203.50 714.03 203.99 713.55 204.40 C 709.11 205.05 704.46 204.68 699.98 204.74 C 698.63 204.57 696.29 204.95 695.60 203.46 C 693.96 200.46 693.14 196.95 692.06 193.72 C 683.83 193.69 675.59 193.78 667.36 193.67 C 666.10 196.93 665.32 200.54 663.58 203.57 C 663.11 204.20 662.54 204.54 661.87 204.57 C 657.60 204.92 653.26 204.74 648.97 204.73 C 647.14 204.53 645.58 205.02 644.53 203.15 C 645.11 199.87 646.53 196.63 647.68 193.51 C 654.07 176.60 660.35 159.71 666.63 142.77 C 667.37 141.18 668.10 138.69 670.15 138.47 Z" fill="#009ffe" />
<path class="f1" d="M 722.48 138.51 C 725.92 137.98 729.53 138.33 733.00 138.27 C 739.31 138.36 745.64 138.11 751.95 138.36 C 759.13 138.82 766.03 141.71 770.70 147.30 C 776.72 154.36 777.22 165.60 772.34 173.38 C 768.18 179.84 760.49 183.31 753.00 183.75 C 748.44 184.11 743.72 183.39 739.22 184.11 C 738.26 190.24 739.48 196.68 738.65 202.81 C 738.36 204.11 737.27 204.58 736.03 204.62 C 732.10 204.86 727.90 204.86 723.96 204.65 C 722.62 204.64 721.43 203.65 720.27 203.02 C 720.51 183.00 720.30 162.97 720.37 142.95 C 720.50 140.86 720.21 139.42 722.48 138.51 Z" fill="#009ffe" />
<path class="f2" d="M 486.59 153.26 C 491.39 153.45 496.55 152.76 501.25 153.77 C 505.17 155.60 505.02 161.38 500.91 162.89 C 496.30 163.78 491.29 163.11 486.59 163.29 C 486.61 159.95 486.61 156.61 486.59 153.26 Z" fill="#ffffff" />
<path class="f2" d="M 738.90 153.67 C 742.93 153.70 747.07 153.42 751.08 153.91 C 753.12 154.19 754.99 155.05 756.21 156.76 C 758.66 160.64 757.34 167.01 752.52 168.31 C 748.08 169.02 743.40 168.53 738.91 168.60 C 738.89 163.63 738.89 158.65 738.90 153.67 Z" fill="#ffffff" />
<path class="f2" d="M 679.74 157.02 C 682.03 164.23 684.42 171.40 686.96 178.53 C 682.10 178.56 677.24 178.54 672.38 178.56 C 674.56 172.33 676.56 166.05 678.73 159.82 C 679.07 158.89 679.40 157.96 679.74 157.02 Z" fill="#ffffff" />
<path class="f1" d="M 115.66 175.37 C 118.07 179.14 118.28 184.18 117.16 188.39 C 115.74 192.32 112.57 195.78 110.21 199.20 C 100.44 212.75 90.69 226.40 80.83 239.88 C 75.64 246.97 65.18 248.14 58.45 242.57 C 52.15 237.44 50.69 228.14 55.40 221.44 C 66.06 206.46 76.99 191.61 87.65 176.62 C 90.11 173.17 92.62 170.10 96.75 168.62 C 103.70 165.92 111.93 168.99 115.66 175.37 Z" fill="#009ffe" />
<path class="f1" d="M 170.83 168.45 C 174.92 169.71 177.60 172.61 179.99 176.00 C 190.43 190.55 200.91 205.07 211.42 219.57 C 213.71 222.70 215.43 226.03 215.50 230.00 C 215.68 237.30 210.38 244.15 203.24 245.71 C 197.27 247.04 190.84 244.82 187.20 239.84 C 177.40 226.33 167.63 212.70 157.82 199.16 C 155.52 195.88 152.64 192.55 151.16 188.82 C 148.92 183.09 150.67 176.28 155.06 172.06 C 159.24 168.10 165.32 166.55 170.83 168.45 Z" fill="#009ffe" />
<path class="f2" d="M 486.58 177.52 C 492.39 177.67 498.27 177.24 504.06 177.71 C 507.48 178.15 510.26 181.29 509.57 184.82 C 509.08 187.76 506.60 189.36 503.78 189.61 C 498.06 190.00 492.27 189.63 486.54 189.76 C 486.61 185.68 486.62 181.60 486.58 177.52 Z" fill="#ffffff" /></svg>